<?xml version="1.0" encoding="utf-8"?>
<!-- Generator: Adobe Illustrator 23.0.3, SVG Export Plug-In . SVG Version: 6.00 Build 0)  -->
<svg version="1.1" id="Layer_1" xmlns="http://www.w3.org/2000/svg" xmlns:xlink="http://www.w3.org/1999/xlink" x="0px" y="0px"
	 viewBox="0 0 512 511" style="enable-background:new 0 0 512 511;" xml:space="preserve">
<style type="text/css">
	.st0{fill:#FFFFFF;}
</style>
<path class="st0" d="M352,359.5c-5.5,0-10,4.5-10,10s4.5,10,10,10c5.5,0,10-4.5,10-10S357.5,359.5,352,359.5z"/>
<path class="st0" d="M266,183.5c0-5.5-4.5-10-10-10s-10,4.5-10,10c0,5.5,4.5,10,10,10S266,189,266,183.5z"/>
<path class="st0" d="M160,379.5c5.5,0,10-4.5,10-10s-4.5-10-10-10s-10,4.5-10,10S154.5,379.5,160,379.5z"/>
<path class="st0" d="M506.1,427L452,403V183.5c0-4-2.4-7.6-6.1-9.2L266,96.9V23.5c0-5.5-4.5-10-10-10c-5.5,0-10,4.5-10,10v73.4
	L66.1,174.3c-3.6,1.5-6.1,5.1-6.1,9.2V403L5.9,427c-5,2.2-7.3,8.2-5.1,13.2c2.2,5,8.1,7.3,13.2,5.1l56-24.9l182,78.3
	c2.4,1,5.3,1.1,7.9,0l182-78.3l56,24.9c5.1,2.3,11-0.1,13.2-5.1C513.4,435.2,511.1,429.3,506.1,427z M246,118.7v24.8
	c0,5.5,4.5,10,10,10c5.5,0,10-4.5,10-10v-24.8l150.7,64.8L256,252.6L95.3,183.5L246,118.7z M132.6,381.7c-2.2-5-8.2-7.3-13.2-5.1
	L80,394.1V198.7l166,71.4v204.2l-151-65l32.5-14.5C132.6,392.6,134.8,386.7,132.6,381.7z M266,474.3V270.1l166-71.4v195.4
	l-39.4-17.5c-5.1-2.2-11,0-13.2,5.1c-2.2,5,0,11,5.1,13.2l32.5,14.5L266,474.3z"/>
</svg>
