<?xml version="1.0" encoding="utf-8"?>
<!-- Generator: Adobe Illustrator 23.0.3, SVG Export Plug-In . SVG Version: 6.00 Build 0)  -->
<svg version="1.1" id="Capa_1" xmlns="http://www.w3.org/2000/svg" xmlns:xlink="http://www.w3.org/1999/xlink" x="0px" y="0px"
	 viewBox="0 0 512 512" style="enable-background:new 0 0 512 512;" xml:space="preserve">
<style type="text/css">
	.st0{fill:#FFFFFF;}
</style>
<g>
	<path class="st0" d="M189.5,54.4c0,5.6-4.5,10.1-10.1,10.1s-10.1-4.5-10.1-10.1s4.5-10.1,10.1-10.1S189.5,48.9,189.5,54.4z
		 M234.8,54.4c0,5.6-4.5,10.1-10.1,10.1s-10.1-4.5-10.1-10.1s4.5-10.1,10.1-10.1S234.8,48.9,234.8,54.4z M280.2,54.4
		c0,5.6-4.5,10.1-10.1,10.1S260,60,260,54.4s4.5-10.1,10.1-10.1S280.2,48.9,280.2,54.4z M512,336.6c0,5.6-4.5,10.1-10.1,10.1h-22.2
		c-5.6,0-10.1-4.5-10.1-10.1c0-5.6,4.5-10.1,10.1-10.1h12.1V104.8H149.2v181.4h197.5c16.7,0,30.2,13.5,30.2,30.2v10.1H389
		c5.8,0,10.5,4.9,10.1,10.8c-0.4,5.3-5.1,9.4-10.4,9.4h-11.7v131c0,16.7-13.5,30.2-30.2,30.2H30.2C13.5,508,0,494.4,0,477.7V316.5
		c0-16.7,13.5-30.2,30.2-30.2H129v-252C129,17.6,142.5,4,159.2,4h322.5C498.5,4,512,17.6,512,34.3V336.6z M346.7,306.4H30.2
		c-5.6,0-10.1,4.5-10.1,10.1v161.3c0,5.6,4.5,10.1,10.1,10.1h316.5c5.6,0,10.1-4.5,10.1-10.1V316.5
		C356.8,310.9,352.3,306.4,346.7,306.4z M149.2,84.7h342.7V34.3c0-5.6-4.5-10.1-10.1-10.1H159.2c-5.6,0-10.1,4.5-10.1,10.1V84.7z
		 M325.2,166.6l-28.1,70.6c-2.1,5.2,0.5,11,5.6,13.1c1.2,0.5,2.5,0.7,3.7,0.7c4,0,7.8-2.4,9.4-6.4l28.1-70.6
		c2.1-5.2-0.5-11-5.6-13.1C333.1,158.9,327.2,161.4,325.2,166.6z M383.5,168.5c-2.9-4.8-9.1-6.3-13.8-3.4c-4.8,2.9-6.3,9.1-3.4,13.8
		l15.8,26.2l-15.9,27.4c-2.8,4.8-1.1,11,3.7,13.8c1.6,0.9,3.3,1.4,5,1.4c3.5,0,6.9-1.8,8.7-5l18.8-32.5c1.8-3.2,1.8-7.1-0.1-10.3
		L383.5,168.5z M271.4,165.1c-4.8-2.9-11-1.3-13.8,3.4l-18.8,31.3c-1.9,3.1-1.9,7.1-0.1,10.3l18.8,32.5c1.9,3.2,5.3,5,8.7,5
		c1.7,0,3.5-0.4,5-1.4c4.8-2.8,6.5-9,3.7-13.8L259,205.1l15.8-26.2C277.7,174.2,276.1,168,271.4,165.1L271.4,165.1z M50.4,346.7
		h10.1c5.6,0,10.1-4.5,10.1-10.1s-4.5-10.1-10.1-10.1H50.4c-5.6,0-10.1,4.5-10.1,10.1S44.8,346.7,50.4,346.7z M103.8,346.7h10.1
		c5.6,0,10.1-4.5,10.1-10.1s-4.5-10.1-10.1-10.1h-10.1c-5.6,0-10.1,4.5-10.1,10.1S98.2,346.7,103.8,346.7z M157.2,346.7h10.1
		c5.6,0,10.1-4.5,10.1-10.1s-4.5-10.1-10.1-10.1h-10.1c-5.6,0-10.1,4.5-10.1,10.1S151.7,346.7,157.2,346.7z M209.6,346.7h10.1
		c5.6,0,10.1-4.5,10.1-10.1s-4.5-10.1-10.1-10.1h-10.1c-5.6,0-10.1,4.5-10.1,10.1S204.1,346.7,209.6,346.7z M263.1,346.7h10.1
		c5.6,0,10.1-4.5,10.1-10.1s-4.5-10.1-10.1-10.1h-10.1c-5.6,0-10.1,4.5-10.1,10.1S257.5,346.7,263.1,346.7z M316.5,346.7h10.1
		c5.6,0,10.1-4.5,10.1-10.1s-4.5-10.1-10.1-10.1h-10.1c-5.6,0-10.1,4.5-10.1,10.1S310.9,346.7,316.5,346.7z M326.6,366.9h-45.4
		c-5.6,0-10.1,4.5-10.1,10.1s4.5,10.1,10.1,10.1h45.4c5.6,0,10.1-4.5,10.1-10.1S332.1,366.9,326.6,366.9z M50.4,387h32.3
		c5.6,0,10.1-4.5,10.1-10.1s-4.5-10.1-10.1-10.1H50.4c-5.6,0-10.1,4.5-10.1,10.1S44.8,387,50.4,387z M124,366.9
		c-5.6,0-10.1,4.5-10.1,10.1S118.4,387,124,387H134c5.6,0,10.1-4.5,10.1-10.1s-4.5-10.1-10.1-10.1H124z M166.3,376.9
		c0,5.6,4.5,10.1,10.1,10.1h10.1c5.6,0,10.1-4.5,10.1-10.1s-4.5-10.1-10.1-10.1h-10.1C170.8,366.9,166.3,371.4,166.3,376.9z
		 M218.7,376.9c0,5.6,4.5,10.1,10.1,10.1h10.1c5.6,0,10.1-4.5,10.1-10.1s-4.5-10.1-10.1-10.1h-10.1
		C223.2,366.9,218.7,371.4,218.7,376.9z M50.4,427.3h45.4c5.6,0,10.1-4.5,10.1-10.1c0-5.6-4.5-10.1-10.1-10.1H50.4
		c-5.6,0-10.1,4.5-10.1,10.1C40.3,422.8,44.8,427.3,50.4,427.3z M326.6,407.2h-32.3c-5.6,0-10.1,4.5-10.1,10.1
		c0,5.6,4.5,10.1,10.1,10.1h32.3c5.6,0,10.1-4.5,10.1-10.1C336.6,411.7,332.1,407.2,326.6,407.2z M232.8,417.3
		c0,5.6,4.5,10.1,10.1,10.1H253c5.6,0,10.1-4.5,10.1-10.1c0-5.6-4.5-10.1-10.1-10.1h-10.1C237.3,407.2,232.8,411.7,232.8,417.3z
		 M200.6,427.3c5.6,0,10.1-4.5,10.1-10.1c0-5.6-4.5-10.1-10.1-10.1h-10.1c-5.6,0-10.1,4.5-10.1,10.1c0,5.6,4.5,10.1,10.1,10.1H200.6
		z M148.2,427.3c5.6,0,10.1-4.5,10.1-10.1c0-5.6-4.5-10.1-10.1-10.1h-10.1c-5.6,0-10.1,4.5-10.1,10.1c0,5.6,4.5,10.1,10.1,10.1
		H148.2z M222.7,447.5H101.8c-5.6,0-10.1,4.5-10.1,10.1s4.5,10.1,10.1,10.1h120.9c5.6,0,10.1-4.5,10.1-10.1S228.3,447.5,222.7,447.5
		z M326.6,447.5h-10.1c-5.6,0-10.1,4.5-10.1,10.1s4.5,10.1,10.1,10.1h10.1c5.6,0,10.1-4.5,10.1-10.1S332.1,447.5,326.6,447.5z
		 M274.1,447.5h-10.1c-5.6,0-10.1,4.5-10.1,10.1s4.5,10.1,10.1,10.1h10.1c5.6,0,10.1-4.5,10.1-10.1S279.7,447.5,274.1,447.5z
		 M60.5,447.5H50.4c-5.6,0-10.1,4.5-10.1,10.1s4.5,10.1,10.1,10.1h10.1c5.6,0,10.1-4.5,10.1-10.1S66,447.5,60.5,447.5z M434.4,326.6
		c-5.6,0-10.1,4.5-10.1,10.1c0,5.6,4.5,10.1,10.1,10.1c5.6,0,10.1-4.5,10.1-10.1C444.5,331.1,439.9,326.6,434.4,326.6z"/>
</g>
</svg>
