<?xml version="1.0" encoding="utf-8"?>
<!-- Generator: Adobe Illustrator 23.0.3, SVG Export Plug-In . SVG Version: 6.00 Build 0)  -->
<svg version="1.1" id="Capa_1" xmlns="http://www.w3.org/2000/svg" xmlns:xlink="http://www.w3.org/1999/xlink" x="0px" y="0px"
	 viewBox="0 0 512 512" style="enable-background:new 0 0 512 512;" xml:space="preserve">
<style type="text/css">
	.st0{fill:#FFFFFF;}
</style>
<g>
	<path class="st0" d="M116.8,26.1c-16.5,0-29.8,13.4-29.8,29.8s13.4,29.8,29.8,29.8s29.8-13.4,29.8-29.8S133.3,26.1,116.8,26.1z
		 M116.8,65.8c-5.4,0-9.8-4.4-9.8-9.8s4.4-9.8,9.8-9.8s9.8,4.4,9.8,9.8S122.2,65.8,116.8,65.8z"/>
	<path class="st0" d="M182.6,26.1c-16.5,0-29.8,13.4-29.8,29.8s13.4,29.8,29.8,29.8s29.8-13.4,29.8-29.8S199.1,26.1,182.6,26.1z
		 M182.6,65.8c-5.4,0-9.8-4.4-9.8-9.8s4.4-9.8,9.8-9.8s9.8,4.4,9.8,9.8S188,65.8,182.6,65.8z"/>
	<path class="st0" d="M248.4,26.1c-16.5,0-29.8,13.4-29.8,29.8s13.4,29.8,29.8,29.8s29.8-13.4,29.8-29.8S264.9,26.1,248.4,26.1
		L248.4,26.1z M248.4,65.8c-5.4,0-9.8-4.4-9.8-9.8s4.4-9.8,9.8-9.8s9.8,4.4,9.8,9.8S253.8,65.8,248.4,65.8L248.4,65.8z"/>
	<path class="st0" d="M329.7,111.9L329.7,111.9c5.5,0,10-4.5,10-10s-4.5-10-10-10s-10,4.5-10,10S324.1,111.9,329.7,111.9z"/>
	<path class="st0" d="M450,159.1c-8.1-19.8-28.5-18-28.6-18.1c0-21.1,0-78.3,0-99.2c0-23.1-18.8-41.8-41.8-41.8h0H102.8
		C75.6,0,53.5,22.1,53.5,49.3v240.1c0,27.2,22.1,49.3,49.3,49.3h209.8v31.2h-5.5c-12.8,0-23.2,10.4-23.2,23.2v80.3
		c0,21.4,17.4,38.7,38.7,38.7s38.7-17.4,38.7-38.7V393c0-12.8-10.4-23.2-23.2-23.2h-5.5v-31.2h39.5c27.2,0,49.3-22.1,49.3-49.3v-26
		c0.1,0,20.6,1.6,28.7-18.2C461.1,218.1,461.5,187.1,450,159.1L450,159.1z M341.3,393v80.3c0,10.3-8.4,18.7-18.7,18.7
		c-10.3,0-18.7-8.4-18.7-18.7V393c0-1.8,1.4-3.2,3.2-3.2h31C339.9,389.8,341.3,391.2,341.3,393z M372.1,217.5v48.4
		c0,5.8-5,10.4-10.9,9.8c-5-0.5-8.8-4.7-8.8-9.8v-44.8c0-19.8-15.1-36.1-34.4-38.1c-22.3-2.3-41.5,15.2-41.7,37.3l-0.2,27.8
		c0,4.8-4,8.8-8.9,8.8c-4.9,0-8.9-4-8.9-8.9c-0.1-75.7,1.2-77.1-3.8-87.1H423c3.7,0,7.1,2.2,8.5,5.6c2.3,5.6,4,11.3,5.2,17.2
		c-30.6,0.2-32-0.5-37.7,0.7C383.7,187.7,372.1,201.3,372.1,217.5L372.1,217.5z M296.3,220.5c0.1-9.7,8-17.7,17.8-17.7
		c10.1,0,18.3,8.2,18.3,18.3v22.3h-36.2L296.3,220.5z M222.1,243.4c-3.7,0-7.1-2.2-8.5-5.7c-9.5-23.2-9.1-48.6,0-70.9
		c4.6-11.3,24.8-4.9,24.8,10.4v66.3L222.1,243.4z M102.8,318.6c-16.1,0-29.3-13.1-29.3-29.3V111.9h216.2c5.5,0,10-4.5,10-10
		s-4.5-10-10-10H73.5V49.3c0-16.1,13.1-29.3,29.3-29.3h276.7c12,0,21.9,9.8,21.9,21.9v50.1h-31.7c-5.5,0-10,4.5-10,10s4.5,10,10,10
		h31.7V141c-10.8,0-169,0-179.2,0c-11.9,0-22.5,7.1-27,18.2c-4.2,10.4-6.9,21.1-7.9,32h-10.8c-18.8,0-34,15.3-34,34v42.2
		c0,20.2,16.5,36.7,36.7,36.7h122.7c6,0,10.8,4.9,10.8,10.8v3.6L102.8,318.6z M401.4,289.3c0,16.1-13.1,29.3-29.3,29.3h-39.5V315
		c0-17-13.8-30.8-30.8-30.8H179c-9.2,0-16.7-7.5-16.7-16.7v-42.2c0-7.7,6.3-14,14-14H187c0.9,11.6,3.6,23,8.1,34.1
		c4.5,11,15.1,18.2,27,18.2h20.7c11.3,18.1,37.6,18.1,48.9,0h40.7v2.5c0,16.5,13.4,29.8,29.8,29.8c16.4,0,29.8-13.3,29.8-29.8v-2.5
		h9.2L401.4,289.3L401.4,289.3z M431.5,237.7c-1.4,3.5-4.8,5.7-8.5,5.7c-10.3,0-19.7,0-30.9,0v-25.9c0-7.5,6.1-13.7,13.7-13.7h32.7
		C438.3,215.4,435.9,227,431.5,237.7L431.5,237.7z"/>
</g>
</svg>
