<svg id="Layer_1" data-name="Layer 1" xmlns="http://www.w3.org/2000/svg" viewBox="0 0 774.79 636.2"><title>hero</title><path d="M332.41,296.83H381c-6.6,43.79-44.6,60.19-86.2,60.19-45.6,0-87.4-19.4-87.4-73,0-53.4,41.8-72.8,87.4-72.8,41.6,0,79.6,16.4,86.2,60.2h-48.6c-4.4-17.8-15-28.2-37.6-28.2-27,0-39.4,16.2-39.4,40.8,0,24.8,12.4,41,39.4,41C317.41,325,328,314.63,332.41,296.83Z" transform="translate(-202.91 -203.93)" fill="none" stroke="#000" stroke-miterlimit="10" stroke-width="5"/><path d="M503,246.43v36.8h-3.6a56.37,56.37,0,0,0-22.2-4.8c-22.4,0-28.6,13.6-28.6,30.2V354H405V247.43h43.6v16.4c4-7,15.8-19.2,39-19.2C494.41,244.63,499.41,245.23,503,246.43Z" transform="translate(-202.91 -203.93)" fill="none" stroke="#000" stroke-miterlimit="10" stroke-width="5"/><path d="M766.21,247.43h27.6V272h-27.6v82h-43.6V272H705v-24.6h17.6c0-23.8,8.6-41,47.4-41,8.2,0,18,.8,25.8,1.4V235C777.61,233,766.21,232.83,766.21,247.43Z" transform="translate(-202.91 -203.93)" fill="none" stroke="#000" stroke-miterlimit="10" stroke-width="5"/><path d="M875.21,272v39.4c0,15,9.8,15,31.2,13.2v29.59a199.51,199.51,0,0,1-25,1.6c-40.2,0-49.8-12.6-49.8-44.39V272h-19.8v-24.6h19.8v-27.6h43.6v27.6h31.2V272Z" transform="translate(-202.91 -203.93)" fill="none" stroke="#000" stroke-miterlimit="10" stroke-width="5"/><path d="M974,324.63l-19.2,47.79h-28.4l8-47.79Z" transform="translate(-202.91 -203.93)" fill="none" stroke="#000" stroke-miterlimit="10" stroke-width="5"/><path d="M332.41,536.83H381c-6.6,43.8-44.6,60.19-86.2,60.19-45.6,0-87.4-19.39-87.4-73,0-53.4,41.8-72.8,87.4-72.8,41.6,0,79.6,16.4,86.2,60.2h-48.6c-4.4-17.8-15-28.2-37.6-28.2-27,0-39.4,16.2-39.4,40.8,0,24.8,12.4,41,39.4,41C317.41,565,328,554.63,332.41,536.83Z" transform="translate(-202.91 -203.93)" fill="none" stroke="#000" stroke-miterlimit="10" stroke-width="5"/><path d="M725,454V594h-43.6v-12.8c-9,10.4-21.8,15.8-36.2,15.8-33,0-58.2-20-58.2-56.19s25.2-56.2,58.2-56.2c14.4,0,27.2,5.4,36.2,15.6V454Zm-39.8,86.8c0-15.6-8-27.8-28.6-27.8-19.2,0-28,13.4-28,27.8s8.8,27.8,28,27.8C677.21,568.63,685.21,556.42,685.21,540.83Z" transform="translate(-202.91 -203.93)" fill="none" stroke="#000" stroke-miterlimit="10" stroke-width="5"/><path d="M880.21,550.63H788c2.6,11,10.2,19.79,27.8,19.79,13.8,0,20.4-7,24-12.39h38.8c-6.8,29.19-33.8,39-62.8,39-34.2,0-68.8-15-68.8-56.19s34.8-56.2,67.8-56.2C845,484.63,883.21,501,880.21,550.63Zm-40.8-22.2c-3.2-11-11.2-17.2-24.6-17.2-15.2,0-23,7.4-26,17.2Z" transform="translate(-202.91 -203.93)" fill="none" stroke="#000" stroke-miterlimit="10" stroke-width="5"/><path d="M946,564.63l-19.2,47.79h-28.4l8-47.79Z" transform="translate(-202.91 -203.93)" fill="none" stroke="#000" stroke-miterlimit="10" stroke-width="5"/><path d="M371.61,789.63C371.61,823.22,343,837,288,837c-59.2,0-82.6-19-82.6-48.39H255c0,13,16,16.59,35.6,16.59,18.8,0,30-2.8,30-10.59,0-9.4-13.6-8.8-53.8-15-43-6.6-58.2-15.6-58.2-43.6,0-28.4,22.6-44.8,77-44.8,59.4,0,77,21.4,77,45.6h-48.2c0-9.6-11.2-13.8-29.4-13.8-19.2,0-29.2,2.8-29.2,10.8,0,9.6,17.4,10.4,41.4,12.8C341,751.23,371.61,754.23,371.61,789.63Z" transform="translate(-202.91 -203.93)" fill="none" stroke="#000" stroke-miterlimit="10" stroke-width="5"/><path d="M589.61,765.43V834H546V775.43c0-11.8-1.2-21-15.8-21s-16.8,9-16.8,21V834h-43.6V775.43c0-11.8-1.4-21-16-21s-16.6,9-16.6,21V834h-43.6V727.43h43.6v13c3.6-5.6,13.8-15.8,33.6-15.8,18.4,0,30.4,5.2,36.8,15.8,5.6-6.2,17.8-15.8,37.6-15.8C574.61,724.63,589.61,738.23,589.61,765.43Z" transform="translate(-202.91 -203.93)" fill="none" stroke="#000" stroke-miterlimit="10" stroke-width="5"/><path d="M614.81,698.83c0-13.2,9.4-20.8,22.6-20.8s22.6,7.6,22.6,20.8-9.4,20.6-22.6,20.6S614.81,712,614.81,698.83Zm.8,28.6h43.6V834h-43.6Z" transform="translate(-202.91 -203.93)" fill="none" stroke="#000" stroke-miterlimit="10" stroke-width="5"/><path d="M728.81,686.43V834h-43.6V686.43Z" transform="translate(-202.91 -203.93)" fill="none" stroke="#000" stroke-miterlimit="10" stroke-width="5"/><path d="M954.4,815.22a21.7,21.7,0,1,1-43.4,0,21.7,21.7,0,0,1,43.4,0Z" transform="translate(-202.91 -203.93)" fill="none" stroke="#000" stroke-miterlimit="10" stroke-width="5"/><path d="M885,783.89a2.54,2.54,0,0,0-3,2A60.14,60.14,0,0,1,822.9,835h0a60.18,60.18,0,1,1,0-120.36h0a59.9,59.9,0,0,1,18.94,3,17.27,17.27,0,0,0-5.11,12.48c0,17.19,23.59,28.61,24.59,29.09a2.64,2.64,0,0,0,1.1.25h.18a2.58,2.58,0,0,0,1-.24,65.26,65.26,0,0,0,14-9.49A60,60,0,0,1,882,763.71a2.55,2.55,0,1,0,5-.94,64.82,64.82,0,0,0-5.64-16.87c3.79-4.38,6.68-9.7,6.68-15.72,0-9.49-7.06-16.92-16.06-16.92a14.84,14.84,0,0,0-9.63,3.43,14.8,14.8,0,0,0-9.63-3.43,15.61,15.61,0,0,0-5.54,1,64.82,64.82,0,0,0-24.35-4.7h0a65.28,65.28,0,0,0,0,130.56h0a65.25,65.25,0,0,0,64.16-53.26A2.54,2.54,0,0,0,885,783.89Zm-24.54-62a2.57,2.57,0,0,0,3.86,0l.06-.07a9.89,9.89,0,0,1,7.63-3.46c6.14,0,11,5.19,11,11.82,0,12.18-16.23,21.65-20.55,24-4.34-2.3-20.63-11.75-20.63-24,0-6.63,4.81-11.82,11-11.82A9.88,9.88,0,0,1,860.48,721.92Z" transform="translate(-202.91 -203.93)" fill="#010101"/><path d="M887.45,774.18a2.55,2.55,0,0,0-4.81.28,2.55,2.55,0,1,0,4.81-.28Z" transform="translate(-202.91 -203.93)" fill="#010101"/><path d="M838.8,767.05l4.43-4.42,4.42,4.42a2.55,2.55,0,0,0,3.61-3.6L845,757.22a2.55,2.55,0,0,0-3.61,0l-6.22,6.23a2.55,2.55,0,1,0,3.6,3.6Z" transform="translate(-202.91 -203.93)" fill="#010101"/><path d="M798,767.05l4.42-4.42,4.42,4.42a2.55,2.55,0,1,0,3.61-3.6l-6.23-6.23a2.53,2.53,0,0,0-3.6,0l-6.23,6.23a2.55,2.55,0,1,0,3.61,3.6Z" transform="translate(-202.91 -203.93)" fill="#010101"/><path d="M784.7,778.51v3.06a38,38,0,0,0,1.64,11.09s0,.05,0,.07a37.92,37.92,0,0,0,18,22.19h0a38.2,38.2,0,0,0,36.86,0h0a37.43,37.43,0,0,0,4.46-2.9,38.39,38.39,0,0,0,13.55-19.3l0-.07a38,38,0,0,0,1.64-11.09v-3.06a2.55,2.55,0,0,0-2.55-2.55H787.25a2.55,2.55,0,0,0-2.55,2.55Zm38.11,36.07a33.19,33.19,0,0,1-13.35-2.81,17.73,17.73,0,0,1,25.88-.87q.42.42.81.87a33.18,33.18,0,0,1-13.34,2.81ZM842.64,808c-.62.46-1.26.91-1.92,1.33a23.8,23.8,0,0,0-1.78-2,22.83,22.83,0,0,0-34.05,2,33.51,33.51,0,0,1-12.47-14.82h60.77A33.43,33.43,0,0,1,842.64,808Zm-52.84-26.9h66v.51a33.41,33.41,0,0,1-.92,7.8H790.73a32.9,32.9,0,0,1-.93-7.8Z" transform="translate(-202.91 -203.93)" fill="#010101"/><path d="M549,488.33h-7.22a2.06,2.06,0,1,0,0,4.12H549a6.19,6.19,0,0,1,6.18,6.19v9.48H422.73v-9.48a6.2,6.2,0,0,1,6.19-6.19H532.74a2.06,2.06,0,1,0,0-4.12H428.92a10.32,10.32,0,0,0-10.31,10.31v22.72a2.06,2.06,0,1,0,4.12,0v-9.12H555.19v53.14a2.07,2.07,0,0,0,4.13,0V498.64A10.32,10.32,0,0,0,549,488.33Z" transform="translate(-202.91 -203.93)" fill="#010101"/><path d="M557.26,572a2.07,2.07,0,0,0-2.07,2.06v5.36a6.19,6.19,0,0,1-6.18,6.19H428.92a6.2,6.2,0,0,1-6.19-6.19V530.21a2.06,2.06,0,1,0-4.12,0v49.22a10.32,10.32,0,0,0,10.31,10.31H549a10.32,10.32,0,0,0,10.31-10.31v-5.36A2.07,2.07,0,0,0,557.26,572Z" transform="translate(-202.91 -203.93)" fill="#010101"/><path d="M448.42,533.12a2,2,0,0,0-2.91,0L433.12,545.5a2.08,2.08,0,0,0,0,2.92l12.22,12.22a2.06,2.06,0,1,0,2.92-2.92L437.49,547,448.42,536a2,2,0,0,0,0-2.91Z" transform="translate(-202.91 -203.93)" fill="#010101"/><path d="M476.14,560.64a2.08,2.08,0,0,0,2.92,0l12.22-12.22a2.08,2.08,0,0,0,0-2.92l-12.39-12.38A2.06,2.06,0,0,0,476,536L486.91,547l-10.77,10.76a2.08,2.08,0,0,0,0,2.92Z" transform="translate(-202.91 -203.93)" fill="#010101"/><path d="M454.88,568.23a2.07,2.07,0,0,0,1.93-1.33l14.65-38.58a2.07,2.07,0,0,0-3.86-1.47L453,565.44a2.06,2.06,0,0,0,1.19,2.66,2.08,2.08,0,0,0,.73.13Z" transform="translate(-202.91 -203.93)" fill="#010101"/><path d="M427.68,500.39a6.19,6.19,0,1,0,6.18-6.18A6.18,6.18,0,0,0,427.68,500.39Zm8.25,0a2.07,2.07,0,1,1-2.07-2.06A2.07,2.07,0,0,1,435.93,500.39Z" transform="translate(-202.91 -203.93)" fill="#010101"/><path d="M443.66,500.39a6.19,6.19,0,1,0,6.19-6.18A6.19,6.19,0,0,0,443.66,500.39Zm8.25,0a2.06,2.06,0,1,1-2.06-2.06A2.06,2.06,0,0,1,451.91,500.39Z" transform="translate(-202.91 -203.93)" fill="#010101"/><path d="M459.65,500.39a6.18,6.18,0,1,0,6.18-6.18A6.18,6.18,0,0,0,459.65,500.39Zm8.24,0a2.06,2.06,0,1,1-2.06-2.06A2.06,2.06,0,0,1,467.89,500.39Z" transform="translate(-202.91 -203.93)" fill="#010101"/><path d="M510.81,535.29h12.92a6.19,6.19,0,0,0,0-12.37H510.81a6.19,6.19,0,0,0,0,12.37Zm0-8.24h12.92a2.06,2.06,0,0,1,0,4.12H510.81a2.06,2.06,0,0,1,0-4.12Z" transform="translate(-202.91 -203.93)" fill="#010101"/><path d="M510.81,551.78h34.08a6.19,6.19,0,0,0,0-12.37H510.81a6.19,6.19,0,0,0,0,12.37Zm0-8.25h34.08a2.07,2.07,0,0,1,0,4.13H510.81a2.07,2.07,0,0,1,0-4.13Z" transform="translate(-202.91 -203.93)" fill="#010101"/><path d="M510.81,568.27h24a6.19,6.19,0,0,0,0-12.37h-24a6.19,6.19,0,0,0,0,12.37Zm0-8.25h24a2.07,2.07,0,0,1,0,4.13h-24a2.07,2.07,0,0,1,0-4.13Z" transform="translate(-202.91 -203.93)" fill="#010101"/><path d="M675.7,296.49a2.31,2.31,0,0,0-1.14-2l-36.48-21.06.09-37.14a2.31,2.31,0,0,0-1.13-2l-37.65-21.74a2.27,2.27,0,0,0-2.27,0l-37.39,21.73a2.28,2.28,0,0,0-1.14,2l-.09,37.13-36.3,21.09a2.26,2.26,0,0,0-1.13,2l-.1,38.44a2.28,2.28,0,0,0,1.13,2l37.65,21.73a2.2,2.2,0,0,0,2.27,0l17.31-10.06a2.26,2.26,0,0,0-2.27-3.92l-13.9,8.07.08-33.18,32.86-19.1L596,333.63l-9.34,5.42A2.27,2.27,0,0,0,589,343l9.33-5.42,36.51,21.08a2.2,2.2,0,0,0,2.27,0l37.4-21.74a2.25,2.25,0,0,0,1.13-1.95l0-13a2.27,2.27,0,0,0-2.26-2.28h0A2.27,2.27,0,0,0,671.1,322l0,11.67-32.86,19.09.08-33.18,32.86-19.1,0,11.09a2.25,2.25,0,0,0,2.26,2.27h0a2.27,2.27,0,0,0,2.27-2.26l0-15Zm-79.47-37.13-.08,33.21L563,273.45l.08-33.21Zm-35.49,18,33.12,19.12L561,315.61l-33.13-19.12Zm39.9,23,33.12,19.12-.09,33.21-33.12-19.12ZM636,315.61l-33.11-19.12,32.89-19.11,33.11,19.12ZM598.26,217.2l33.12,19.13-17.69,10.28a2.27,2.27,0,1,0,2.28,3.92l17.66-10.27-.08,33.18-32.87,19.1.09-33.18,6-3.49a2.27,2.27,0,0,0-2.28-3.92l-6,3.49-33.12-19.13Zm-72.67,83.22,33.12,19.12-.09,33.21L525.5,333.63Z" transform="translate(-202.91 -203.93)" fill="#010101"/></svg>