<svg id="Layer_1" data-name="Layer 1" xmlns="http://www.w3.org/2000/svg" viewBox="0 0 120.54 29.25"><title>line</title><g opacity="0.81"><path d="M48,16.88Q14.35,29.3,28.14,26c1.23-.27,2.46-.52,3.7-.76,2.43-.46,4.87-.85,7.31-1.22,5.12-.79,10.25-1.51,15.38-2.21,10.34-1.41,20.69-2.71,31.05-4,7.9-1,16-5.21,23.08-8.61a77.17,77.17,0,0,0,10.58-5.65c.35-.24,3.51-2.51,1.22-2.22-14.54,1.82-29.09,3.63-43.6,5.79A162.3,162.3,0,0,0,21,25.67c.33-.18-5.21,2.71-4.8,3.65s6.29-1.18,5.93-1.06A152.29,152.29,0,0,0,48,16.88Z" transform="translate(-0.75 -0.31)" fill="#ed1c24"/></g><g opacity="0.81"><path d="M96.61,15.86C65.76,5.51,34,.89,1.57.31-1,.26,3.22,2.61,2.94,2.44A73.94,73.94,0,0,0,13.88,7.36c7.15,2.77,15.76,6.89,23.61,7A334.56,334.56,0,0,1,75.2,16.88c6.07.8,12.12,1.77,18.1,3,2.53.53,5,1.14,7.54,1.8,1.1.29.46.1,2.18.62a15.51,15.51,0,0,1,2.29.76,72.84,72.84,0,0,0,11.55,3.18c1.06.17,3.5.8,2.42-.76-1.37-2-6.32-3.43-8.24-4.24-4.73-2-9.56-3.78-14.43-5.42Z" transform="translate(-0.75 -0.31)" fill="#ed1c24"/></g></svg>