<svg width="283" height="64" viewBox="0 0 283 64" fill="none" xmlns="http://www.w3.org/2000/svg">
    <title>logo</title>
        <g class="lines">
        <path d="M73.27,23.47l4.36,7H70.46l-3.82-6.33h-9.8v6.33H50.75V6.84h18.6c5.38,0,9.06,3.41,9.06,8.69A8.06,8.06,0,0,1,73.27,23.47ZM56.84,
        19.08H67.66c1.82,0,4.66,0,4.66-3.55s-2.84-3.59-4.66-3.59H56.84Z" transform="translate(-50.25 -6)" fill="none" stroke="#000" stroke-miterlimit="10"/>
        <path d="M96.4,30.84c-10.41,0-14.88-3.95-14.88-12.2V6.84h6.09v11.8c0,3.31.91,7.1,8.79,7.1s8.79-3.82,8.79-7.1V6.84h6.09v11.8C111.28,26.85,106.78,
        30.84,96.4,30.84Z" transform="translate(-50.25 -6)" fill="none" stroke="#000" stroke-miterlimit="10"/>
        <path d="M120.47,22.36c0,2.5,2,3.65,9.74,3.65,6.39,0,8.32-.71,8.32-2.57s-1.35-2.3-9-2.67c-10.31-.48-14.4-2.1-14.4-7.41s5.31-6.86,14.17-6.86,
        14.33,2.23,14.33,8.08h-6.08c0-2.6-2.61-3.25-8.93-3.25-6,0-7.41.58-7.41,2.34s1.42,2.16,8.32,2.57c9.34.5,15.12,1,15.12,7,0,6.32-6,7.6-14.74,
        7.6-9.71,0-15.49-1.65-15.49-8.48Z" transform="translate(-50.25 -6)" fill="none" stroke="#000" stroke-miterlimit="10"/>
        <path d="M179.17,6.84V30.51h-6.08V21.24H153.81v9.27h-6.08V6.84h6.08V16.1h19.28V6.84Z" transform="translate(-50.25 -6)" fill="none" stroke="#000" stroke-miterlimit="10"/>
        <path d="M188.88,30.51h-6.09V6.84h6.09Z" transform="translate(-50.25 -6)" fill="none" stroke="#000" stroke-miterlimit="10"/>
        <path d="M210.35,17.35l14.34,13.16h-8.42l-10.42-9.84L198.58,26v4.53H192.5V6.84h6.08V19.11L215.46,6.84h9.23Z" transform="translate(-50.25 -6)" fill="none" stroke="#000" stroke-miterlimit="10"/>
        <path d="M78.47,50.76c0,5.2-3.69,8.56-9.06,8.56H50.81V36H56.9v6.23h9.8L70.52,36h7.17l-4.36,6.93A7.94,7.94,0,0,1,78.47,50.76ZM56.9,
        54.29H67.72c1.82,0,4.66,0,4.66-3.53s-2.84-3.5-4.66-3.5H56.9Z" transform="translate(-50.25 -6)" fill="none" stroke="#000" stroke-miterlimit="10"/>
        <path d="M104.91,36h6.73L99.4,59.32H91.18L79,36h6.69l2.54,5h14.16ZM90.47,45.43l4.84,9.46,4.8-9.46Z" transform="translate(-50.25 -6)" fill="none" stroke="#000" stroke-miterlimit="10"/>
        <path d="M149.34,59.32h-8.21l-9.91-16.46-9.91,16.46h-8.22V36h6.09V52L129,36h4.4l9.84,16V36h6.08Z" transform="translate(-50.25 -6)" fill="none" stroke="#000" stroke-miterlimit="10"/>
        <path d="M176.73,36h6.73L171.22,59.32H163L150.8,36h6.69L160,41h14.16Zm-14.44,9.43,4.84,9.46,4.8-9.46Z" transform="translate(-50.25 -6)" fill="none" stroke="#000" stroke-miterlimit="10"/>
        <path d="M209.33,59.32V41.8L193.16,59.32h-8.25V36H191V53.49L207.13,36h8.28V59.32Z" transform="translate(-50.25 -6)" fill="none" stroke="#000" stroke-miterlimit="10"/>
        <path d="M224.2,59.32h-6.08V36h6.08Z" transform="translate(-50.25 -6)" fill="none" stroke="#000" stroke-miterlimit="10"/>
        </g>
</svg>