<svg xmlns="http://www.w3.org/2000/svg" viewBox="0 0 603.85 184.54"><title>Asset 4logo1</title><g id="Layer_2" data-name="Layer 2"><g id="Layer_1-2" data-name="Layer 1"><path d="M83.89,76.1l15,24.17H74.25L61.12,78.54H27.42v21.73H6.5V18.93H70.41c18.48,0,31.15,11.73,31.15,29.86C101.56,62,94.82,71.8,83.89,76.1ZM27.42,61H64.6c6.28,0,16,0,16-12.2s-9.76-12.32-16-12.32H27.42Z" transform="translate(-5 -16.26)" stroke="#000" stroke-miterlimit="10" stroke-width="3"/><path d="M163.38,101.44c-35.79,0-51.13-13.6-51.13-42V18.93h20.91V59.48c0,11.39,3.14,24.41,30.22,24.41s30.21-13.13,30.21-24.41V18.93h20.92V59.48C214.51,87.72,199.06,101.44,163.38,101.44Z" transform="translate(-5 -16.26)" stroke="#000" stroke-miterlimit="10" stroke-width="3"/><path d="M246.12,72.27c0,8.6,7,12.55,33.46,12.55,22,0,28.59-2.44,28.59-8.83,0-6.74-4.65-7.91-31-9.18-35.44-1.63-49.5-7.21-49.5-25.46,0-17.89,18.24-23.59,48.69-23.59,30.68,0,49.27,7.67,49.27,27.78H304.69c0-8.95-8.95-11.16-30.68-11.16-20.57,0-25.45,2-25.45,8,0,6.28,4.88,7.44,28.58,8.83,32.08,1.75,51.95,3.49,51.95,24.06,0,21.73-20.57,26.15-50.67,26.15-33.35,0-53.22-5.7-53.22-29.17Z" transform="translate(-5 -16.26)" stroke="#000" stroke-miterlimit="10" stroke-width="3"/><path d="M447.85,18.93v81.34H426.94V68.43H360.7v31.84H339.78V18.93H360.7V50.77h66.24V18.93Z" transform="translate(-5 -16.26)" stroke="#000" stroke-miterlimit="10" stroke-width="3"/><path d="M481.2,100.27H460.28V18.93H481.2Z" transform="translate(-5 -16.26)" stroke="#000" stroke-miterlimit="10" stroke-width="3"/><path d="M555,55.07l49.28,45.2H575.33L539.54,66.46l-25,18.24v15.57H493.63V18.93h20.92V61.11l58-42.18h31.73Z" transform="translate(-5 -16.26)" stroke="#000" stroke-miterlimit="10" stroke-width="3"/><path d="M101.75,169.88c0,17.86-12.66,29.42-31.14,29.42H6.69V119.16H27.61v21.41h33.7l13.13-21.41H99.08L84.09,143C95,147.21,101.75,156.82,101.75,169.88ZM27.61,182H64.8c6.27,0,16,0,16-12.13s-9.77-12-16-12H27.61Z" transform="translate(-5 -16.26)" stroke="#000" stroke-miterlimit="10" stroke-width="3"/><path d="M192.63,119.16h23.12L173.69,199.3H145.45l-42-80.14h23l8.72,17.06h48.69ZM143,151.56l16.61,32.51,16.51-32.51Z" transform="translate(-5 -16.26)" stroke="#000" stroke-miterlimit="10" stroke-width="3"/><path d="M345.32,199.3H317.09l-34-56.56L249,199.3H220.75V119.16h20.91v55l33.82-55h15.11l33.82,55v-55h20.91Z" transform="translate(-5 -16.26)" stroke="#000" stroke-miterlimit="10" stroke-width="3"/><path d="M439.45,119.16h23.13L420.51,199.3H392.27l-41.95-80.14h23L382,136.22h48.69Zm-49.62,32.4,16.62,32.51L423,151.56Z" transform="translate(-5 -16.26)" stroke="#000" stroke-miterlimit="10" stroke-width="3"/><path d="M551.47,199.3V139.08L495.92,199.3H467.57V119.16h20.92v60.1l55.43-60.1h28.47V199.3Z" transform="translate(-5 -16.26)" stroke="#000" stroke-miterlimit="10" stroke-width="3"/><path d="M602.6,199.3H581.68V119.16H602.6Z" transform="translate(-5 -16.26)" stroke="#000" stroke-miterlimit="10" stroke-width="3"/></g></g></svg>